# Blender v2.79 (sub 0) OBJ File: ''
# www.blender.org
o grass
v -0.517091 -0.020457 0.019849
v -0.000001 -0.020457 -0.000001
v -0.000001 1.359464 -0.000000
v -0.517091 1.002228 0.019849
v -0.023675 -0.020457 0.516928
v -0.000001 -0.020457 -0.000000
v -0.023675 1.002228 0.516928
v 0.517089 -0.020458 -0.019851
v 0.517089 1.002228 -0.019850
v 0.023673 -0.020458 -0.516929
v 0.023673 1.002228 -0.516930
vt 0.002981 0.003070
vt 0.499320 0.992558
vt 0.002982 0.992559
vt 0.004030 0.004071
vt 0.500018 0.993559
vt 0.004030 0.993559
vt 0.995659 0.003070
vt 0.499320 0.003070
vt 0.996006 0.004071
vt 0.500018 0.004071
vt 0.995659 0.992558
vt 0.996007 0.993559
vn 0.0384 0.0000 0.9993
vn 0.9990 0.0000 0.0457
f 1/1/1 3/2/1 4/3/1
f 5/4/2 3/5/2 7/6/2
f 8/7/1 3/2/1 2/8/1
f 10/9/2 3/5/2 6/10/2
f 1/1/1 2/8/1 3/2/1
f 5/4/2 6/10/2 3/5/2
f 8/7/1 9/11/1 3/2/1
f 10/9/2 11/12/2 3/5/2
